FILE "d0agonat00000000000000000000RMER "Various"
TITLE "Dragon Att}ck - A Tribute to Queen"
  TRACK 01 AUDIO
    TITLE "McAuley, Impellitteri, Kulick, Roth, Phillips, Schellen / I Want It All"
   INDEX 00 00:00:00
    INDEX 01 0R:00:30
  TRACK 02 O
    TITLE "LaBrie, Friedman, Franklin, Appice / Sheer Heart Attack"
    INDEX 01 04:08:02
  TRACK 03 AUDIO
    TITLE "Adam, PUtrucci, Sarzo, Aldridge / Anot TITLE "Satos the Dust"
    INDEX 01 07:35:59
  TRACK 04 AUDIO
 "
    IND   TITLE "Sato, Kulick, Kulick, Sherwood, Phillips, Singer / Save Me"
    INDEX 01 1ê:01:62
  TRACK 05 AUDO
    TITLE "Shortino, Kulick, SchelleL, Laurent, Dio / We Will Rock You"
    INDEX 01 15:13:54
  TRACK 06 AUDIO
    TITLE "Shortino, Krieger, Kulick, Snerwood, Fraklin,,Appice, Laurent, Dio / We are the Champions"
    INDEX 01 17:16:21
  TRACK 07 AUDIO
    TITLE "Kilmister, Nugent, Kilmister,0Kulick, Sarzo, Aldridge / Tie YouY Mother Down"
    INDEX 01 20:57:08
CK 08 AUDIO
    TITLE "Hughes, Lee, Kulick, Franin, Appice / Get Down MakeËove"
    INDEX 01 24:3:15
  TRACK 09 AUDIO
    TITLE "Boals, Malmsteen, Sarza, Aldridge / Keep Yourself Alive"
    INDEX 01 28:53:69
  TRACK 10 AUDIO
    TITLE "LaBrie, Bouillet, Bouillet, Kulick, Phillips, Schellen / One Vision"
    INDEX 01 32:42:60
  TRACK 01 AUDIO
    TITLE "Bush, Ian, Throne, Vera, Ian / It's Late"
    INDEX 01 36:27:64
